<?xml version="1.0" standalone="no"?>
<!DOCTYPE svg PUBLIC "-//W3C//DTD SVG 1.1//EN" "http://www.w3.org/Graphics/SVG/1.1/DTD/svg11.dtd">
<svg xmlns="http://www.w3.org/2000/svg">
<metadata>Copyright (C) 2019 by original authors @ fontello.com</metadata>
<defs>
<font id="pedeon" horiz-adv-x="1000" >
<font-face font-family="pedeon" font-weight="400" font-stretch="normal" units-per-em="1000" ascent="850" descent="-150" />
<missing-glyph horiz-adv-x="1000" />
<glyph glyph-name="users" unicode="&#xe800;" d="M604 626c46-29 78-78 84-135 19-8 40-13 62-13 81 0 147 65 147 146 0 81-66 147-147 147-80 0-145-65-146-145z m-97-300c81 0 147 66 147 147s-66 146-147 146c-81 0-146-65-146-146s65-147 146-147z m63-10h-125c-103 0-188-84-188-188v-152l1-2 10-4c99-31 185-41 256-41 138 0 218 40 223 42l9 5h1v152c0 104-84 188-187 188z m242 152h-123c-2-50-23-94-56-126 92-28 159-113 159-214v-47c122 5 193 39 197 42l10 4h1v153c0 103-84 188-188 188z m-562 9c29 0 55 9 78 23 7 47 32 88 68 116 0 3 1 5 1 8 0 81-66 147-147 147-81 0-147-66-147-147 0-81 66-147 147-147z m132-135c-33 31-54 76-56 125-5 0-9 1-14 1h-124c-104 0-188-85-188-188v-152l0-3 11-3c79-25 150-36 211-40v46c0 101 68 186 160 214z" horiz-adv-x="1000" />

<glyph glyph-name="vdots" unicode="&#xe801;" d="M500 582c-74 0-133 60-133 134 0 74 59 134 133 134 74 0 133-60 133-134 0-74-59-134-133-134z m0-366c-74 0-133 60-133 134 0 74 59 134 133 134 74 0 133-60 133-134 0-74-59-134-133-134z m0-366c-74 0-133 60-133 134s59 134 133 134c74 0 133-60 133-134s-59-134-133-134z" horiz-adv-x="1000" />

<glyph glyph-name="woman" unicode="&#xe802;" d="M372 560l-57-204c-13-44 40-62 53-20l51 188h15l-89-330h83v-248c0-45 62-45 62 0v248h20v-248c0-45 60-45 60 0v248h85l-90 330h16l52-188c12-43 65-24 53 20l-57 204c-8 23-36 63-82 65h-93c-48-2-75-42-82-65z m200 155c0 40-32 73-72 73-39 0-71-33-71-73 0-40 32-73 71-73 40 0 72 33 72 73z" horiz-adv-x="1000" />

<glyph glyph-name="wifi" unicode="&#xe803;" d="M500 663c-159 0-318-66-433-173-6-6-6-16 0-22l52-55c6-6 16-6 23 0 45 42 97 76 155 99 64 27 133 41 203 41s140-14 204-41c57-24 109-57 155-99 6-6 16-6 22 0l53 55c6 6 6 16-1 22-115 107-274 173-433 173z m-279-355l56-55c6-6 16-6 22-1 55 49 126 76 201 76s146-27 201-76c6-5 16-5 22 1l56 55c6 7 6 17-1 23-73 66-171 107-278 107s-205-41-279-107c-6-6-6-16 0-23z m279-91c-46 0-87-19-116-50-6-6-6-16 0-22l105-103c6-6 16-6 22 0l105 103c6 6 6 16 0 22-29 31-70 50-116 50z" horiz-adv-x="1000" />

<glyph glyph-name="add-coin" unicode="&#xe804;" d="M500 756c-224 0-406-182-406-406s182-406 406-406 406 182 406 406-182 406-406 406z m209-447h-168v-168h-82v168h-168v82h168v168h82v-168h168v-82z" horiz-adv-x="1000" />

<glyph glyph-name="add-user" unicode="&#xe805;" d="M594 350c103 0 187 84 187 188s-84 187-187 187-188-84-188-187 85-188 188-188z m0-94c-124 0-375-63-375-187v-94h750v94c0 124-251 187-375 187z m-375 157v125h-63v-125h-125v-63h125v-125h63v125h125v63h-125z" horiz-adv-x="1000" />

<glyph glyph-name="alarm" unicode="&#xe806;" d="M918 606l-192 160-55-64 193-160 54 64z m-591 98l-55 64-190-162 54-64 191 162z m194-191h-63v-249l199-118 31 52-167 97v218z m-21 166c-209 0-376-168-376-374 0-205 167-373 376-373 207 0 376 168 376 373 0 206-169 374-376 374z m0-664c-161 0-293 131-293 290 0 160 132 291 293 291 161 0 293-131 293-291 0-161-132-290-293-290z" horiz-adv-x="1000" />

<glyph glyph-name="apps" unicode="&#xe807;" d="M188 506h156v157h-156v-157z m234-468h156v156h-156v-156z m-234 0h156v156h-156v-156z m0 234h156v156h-156v-156z m234 0h156v156h-156v-156z m234 391v-157h157v157h-157z m-234-157h156v157h-156v-157z m234-234h157v156h-157v-156z m0-234h157v156h-157v-156z" horiz-adv-x="1000" />

<glyph glyph-name="arrow-d" unicode="&#xe808;" d="M542 684v-507l234 234 58-61-334-334-334 334 59 58 233-231v507h84z" horiz-adv-x="1000" />

<glyph glyph-name="down" unicode="&#xe809;" d="M500 71c-15 0-30 6-41 17l-442 442c-23 23-23 59 0 82 23 23 59 23 82 0l401-401 401 401c23 23 59 23 82 0 23-23 23-59 0-82l-442-442c-11-11-26-17-41-17z" horiz-adv-x="1000" />

<glyph glyph-name="arrow-r" unicode="&#xe80a;" d="M166 308h507l-233-233 60-59 334 334-334 334-58-58 231-234h-507v-84z" horiz-adv-x="1000" />

<glyph glyph-name="arrow-u" unicode="&#xe80b;" d="M542 16v507l234-233 58 60-334 334-334-334 59-58 233 231v-507h84z" horiz-adv-x="1000" />

<glyph glyph-name="asterisk" unicode="&#xe80c;" d="M687 350l211 122-93 162-211-121v243h-188v-243l-211 121-93-162 211-122-211-122 93-162 211 122v-244h188v244l211-122 93 162z" horiz-adv-x="1000" />

<glyph glyph-name="bullets" unicode="&#xe80d;" d="M107 457c-30 0-55-10-76-31-21-21-31-46-31-76 0-30 10-55 31-76 21-21 46-31 76-31 30 0 55 10 76 31 21 21 31 46 31 76 0 30-10 55-31 76-21 21-46 31-76 31z m0 286c-30 0-55-11-76-31-21-21-31-46-31-76 0-30 10-55 31-76 21-21 46-31 76-31 30 0 55 10 76 31 21 21 31 46 31 76 0 30-10 55-31 76-21 20-46 31-76 31z m0-572c-30 0-55-10-76-31-21-21-31-46-31-76 0-29 10-55 31-76 21-20 46-31 76-31 30 0 55 11 76 31 21 21 31 47 31 76 0 30-10 55-31 76-21 21-46 31-76 31z m888 531c-4 3-8 5-13 5h-678c-5 0-9-2-13-5-3-4-5-8-5-13v-107c0-5 2-9 5-12 4-4 8-6 13-6h678c5 0 9 2 13 6 3 3 5 7 5 12v107c0 5-2 9-5 13z m-13-281h-678c-5 0-9-1-13-5-3-3-5-8-5-12v-108c0-4 2-9 5-12 4-4 8-5 13-5h678c5 0 9 1 13 5 3 3 5 8 5 12v108c0 4-2 9-5 12-4 4-8 5-13 5z m0-285h-678c-5 0-9-2-13-6-3-3-5-7-5-12v-107c0-5 2-9 5-13 4-3 8-5 13-5h678c5 0 9 2 13 5 3 4 5 8 5 13v107c0 5-2 9-5 12-4 4-8 6-13 6z" horiz-adv-x="1000" />

<glyph glyph-name="cancel" unicode="&#xe80e;" d="M0 36l314 314-314 314 186 186 314-314 314 314 186-186-314-314 314-314-186-186-314 314-314-314-186 186z" horiz-adv-x="1000" />

<glyph glyph-name="cart" unicode="&#xe80f;" d="M331 113c-44 0-81-37-81-82 0-44 37-81 81-81s82 37 82 81c0 45-37 82-82 82z m-237 637v-81h81l146-296-61-100c-6-10-10-24-10-39 0-54 37-81 88-81h475v78h-466c-6 0-10 4-10 10 0 2 5 11 5 11l40 64h303c30 0 57 16 71 42l146 252c3 5 4 12 4 20 0 23-18 39-40 39h-602l-38 81h-132z m637-637c-44 0-81-37-81-82 0-44 37-81 81-81s82 37 82 81c0 45-37 82-82 82z" horiz-adv-x="1000" />

<glyph glyph-name="chat" unicode="&#xe810;" d="M500 725c-224 0-406-147-406-328 0-127 89-237 219-291-10-51-41-92-65-119-5-5 0-12 7-12 22 2 64 9 99 25 42 19 79 59 91 72 18-2 36-3 55-3 225 0 407 147 407 328-1 181-183 328-407 328z" horiz-adv-x="1000" />

<glyph glyph-name="chatboxes" unicode="&#xe811;" d="M832 517h-433c-41 0-74-33-74-74v-302c0-41 33-74 74-74h248c5 0 11-2 15-6l123-114c6-6 18-3 18 6v99c0 12 7 15 19 15h2c41 0 82 33 82 75v301c0 41-33 74-74 74z m-491 48h346v128c0 35-28 63-64 63h-466c-35 0-63-28-63-63v-323c0-35 28-64 63-64h120v195c0 36 29 64 64 64z" horiz-adv-x="1000" />

<glyph glyph-name="check" unicode="&#xe812;" d="M868 725l132-132-619-618-381 381 132 132 249-249 487 486z" horiz-adv-x="1000" />

<glyph glyph-name="barcode" unicode="&#xe813;" d="M90 829h-80c-6 0-10-5-10-10v-937c0-6 4-10 10-10h80c6 0 10 4 10 10v937c0 5-4 10-10 10z m98-793h41c5 0 9 5 9 10v773c0 5-4 10-9 10h-41c-5 0-9-5-9-10v-773c0-5 4-10 9-10z m152 0h52c6 0 10 5 10 10v773c0 5-4 10-10 10h-52c-5 0-10-5-10-10v-773c0-5 5-10 10-10z m138 0h51c5 0 10 5 10 10v773c0 5-5 10-10 10h-51c-5 0-9-5-9-10v-773c0-5 4-10 9-10z m139 0h80c6 0 10 5 10 10v773c0 5-4 10-10 10h-80c-6 0-10-5-10-10v-773c0-5 4-10 10-10z m165 0h54c5 0 9 5 9 10v773c0 5-4 10-9 10h-54c-5 0-10-5-10-10v-773c0-5 5-10 10-10z m208 793h-80c-6 0-10-5-10-10v-937c0-6 4-10 10-10h80c6 0 10 4 10 10v937c0 5-4 10-10 10z m-795-836c-31 0-49-22-49-61 0-39 18-61 49-61 32 0 50 22 50 61 0 39-18 61-50 61z m0-106c-22 0-33 15-33 45 0 30 11 46 33 46 23 0 34-16 34-46 0-17-4-45-34-45z m82 106h-24c-4 0-8-3-8-7v-1c0-4 4-7 8-7h16v-99c0-4 3-8 7-8h1c4 0 8 4 8 8v107c0 4-4 7-8 7z m69-61h-31c-5 0-8-3-8-7v-1c0-4 3-7 8-7h31c4 0 8 3 8 7v1c0 4-4 7-8 7z m62 61c-31 0-50-22-50-61 0-39 19-61 50-61 32 0 50 22 50 61 0 39-18 61-50 61z m0-106c-22 0-34 15-34 45 0 30 12 46 34 46 23 0 34-16 34-46 0-17-4-45-34-45z m82 106h-24c-5 0-8-3-8-7v-1c0-4 3-7 8-7h15v-99c0-4 4-8 8-8h1c4 0 7 4 7 8v107c0 4-3 7-7 7z m103-106h-53l32 35c13 14 20 28 20 39 0 20-14 32-37 32-12 0-26-5-36-15-1-1-2-3-2-5 0-2 1-4 2-6l1 0c3-3 8-3 10 0 7 6 17 11 25 11 7 0 22-2 22-17 0-5-5-15-17-28l-42-47c-1-1-1-3-1-5v-2c0-4 3-8 7-8h69c4 0 8 4 8 8v0c0 5-4 8-8 8z m56 58l29 35c2 1 2 3 2 5v1c0 4-3 7-7 7h-56c-4 0-7-3-7-7v-1c0-4 3-7 7-7h39l-29-35c-1-1-2-3-2-5v-1c0-4 3-7 8-7h9c13 0 28-4 28-20 0-14-11-23-27-23-9 0-18 3-25 7-3 2-8 1-10-2l0 0c-2-2-2-4-2-6 1-2 2-4 4-5 9-6 21-10 33-10 25 0 42 16 42 40 0 19-14 32-36 34z m124-25h-10v27c0 4-4 7-8 7h-1c-4 0-7-3-7-7v-27h-33l36 62c2 2 2 5 0 8-1 2-4 3-6 3h-1c-3 0-5-1-7-3l-41-73c-1-1-1-2-1-3v-3c0-4 3-7 8-7h45v-25c0-4 3-8 7-8h1c4 0 8 4 8 8v25h10c4 0 7 3 7 7v1c0 4-3 8-7 8z m45 29c-5 0-11-1-17-2v31h47c5 0 8 3 8 7v1c0 4-3 7-8 7h-56c-4 0-7-3-7-7v-50c0-3 1-5 3-6 2-2 5-2 7-1 7 3 17 4 23 4 16 0 26-7 26-20 0-16-10-26-26-26-9 0-20 4-28 9-3 2-8 1-10-3l0 0c-2-2-2-4-1-6 0-2 1-4 3-5 11-6 24-11 36-11 25 0 42 17 42 42 0 21-17 36-42 36z" horiz-adv-x="1000" />

<glyph glyph-name="copy" unicode="&#xe814;" d="M578 756h-233c-43 0-79-34-79-77v-16h-15c-43 0-79-34-79-78v-562c0-43 36-79 79-79h406c43 0 77 36 77 79v15h17c43 0 77 35 77 79v389l-250 250z m0-87l163-163h-163v163z m94-646c0-9-7-17-15-17h-406c-9 0-17 8-17 17v562c0 8 8 15 17 15h15v-499c0-43 20-63 63-63h343v-15z m94 94c0-10-7-17-15-17h-406c-9 0-17 8-17 17v562c0 8 8 15 17 15h171v-250h250v-327z" horiz-adv-x="1000" />

<glyph glyph-name="chevron-r" unicode="&#xe815;" d="M791 408l-418 418c-15 16-35 24-58 24-23 0-42-8-58-24l-48-48c-16-16-24-36-24-58 0-22 8-42 24-59l312-311-312-312c-16-16-24-35-24-58 0-22 8-41 24-58l48-48c16-16 36-24 58-24 23 0 42 8 58 24l418 418c16 16 24 36 24 58 0 23-8 42-24 58z" horiz-adv-x="1000" />

<glyph glyph-name="chevron-u" unicode="&#xe816;" d="M976 224l-418 417c-16 16-36 24-58 24-23 0-42-8-58-24l-418-417c-16-17-24-36-24-59 0-23 8-42 24-58l49-48c15-16 34-24 57-24 23 0 43 8 58 24l312 312 312-312c15-16 35-24 58-24 22 0 42 8 58 24l48 48c16 16 24 36 24 58 0 23-8 42-24 59z" horiz-adv-x="1000" />

<glyph glyph-name="chevron-l" unicode="&#xe817;" d="M479 350l313 312c15 16 23 35 23 58 0 23-8 42-23 58l-49 48c-15 16-35 24-58 24s-42-8-58-24l-419-418c-15-16-23-35-23-58s8-42 23-58l419-418c16-16 35-24 58-24s43 8 58 24l49 48c15 16 23 35 23 58 0 22-8 42-23 58l-313 312z" horiz-adv-x="1000" />

<glyph glyph-name="download" unicode="&#xe818;" d="M813 460h-179v265h-268v-265h-178l312-308 313 308z m-625-397v-88h625v88h-625z" horiz-adv-x="1000" />

<glyph glyph-name="chevron-d" unicode="&#xe819;" d="M976 593l-48 48c-17 16-36 24-58 24-23 0-42-8-58-24l-312-311-312 311c-16 16-35 24-58 24-22 0-41-8-58-24l-48-48c-16-16-24-35-24-58 0-23 8-42 24-58l418-418c16-16 35-24 58-24 23 0 42 8 58 24l418 418c16 16 24 35 24 58 0 22-8 42-24 58z" horiz-adv-x="1000" />

<glyph glyph-name="clock" unicode="&#xe81a;" d="M500 850c-276 0-500-224-500-500s224-500 500-500 500 224 500 500-224 500-500 500z m143-732l-205 206v276h125v-224l169-169-89-89z" horiz-adv-x="1000" />

<glyph glyph-name="filter" unicode="&#xe81b;" d="M94 680c0-12 4-23 11-31l297-351c7-8 11-19 11-31v-209c0-19 11-36 28-43l108-38c19-7 38 8 38 29v261c0 12 4 23 11 31l297 351c7 9 11 20 11 31 0 25-18 45-41 45h-729c-23 0-42-20-42-45z" horiz-adv-x="1000" />

<glyph glyph-name="day" unicode="&#xe81c;" d="M809 724v101c0 14 8 25 18 25s17-11 17-25v-101c0-14-8-25-17-25-10 0-18 11-18 25z m-317-25c10 0 18 11 18 25v101c0 14-8 25-18 25s-17-11-17-25v-101c0-14 8-25 17-25z m-326 0c10 0 18 11 18 25v101c0 14-8 25-18 25s-17-11-17-25v-101c0-14 8-25 17-25z m822-88h-2c1-4 2-8 2-13v-672c0-42-34-76-74-76h-828c-40 0-74 34-74 76v672c0 5 1 9 2 13h-2v96c0 43 34 78 74 78h43v-61c0-25 16-45 37-45 22 0 38 20 38 45v61h251v-61c0-25 16-45 37-45 21 0 38 20 38 45v61h259v-61c0-25 17-45 38-45 21 0 38 20 38 45v61h49c40 0 74-35 74-78v-96z m-67-633l0 614c0 6-1 13-3 19h-845c-2-6-3-13-3-19v-614c0-38 29-69 64-69h723c35 0 64 31 64 69z m-776 444l19-83 90 42h1v-374h107v473h-91l-126-58z m531-323h0l43 36c70 62 126 125 126 205 0 85-58 148-166 148-63 0-119-22-154-49l31-79c25 19 61 39 101 39 55 0 78-31 78-69-1-55-51-109-155-202l-61-54v-67h336v91h-179c0 0 0 1 0 1z" horiz-adv-x="1000" />

<glyph glyph-name="flash" unicode="&#xe81d;" d="M735 413h-212l103 365c2 8-9 13-14 6l-359-470c-7-11 0-26 12-26h212l-103-366c-1-8 9-13 14-6l359 470c7 11 1 27-12 27z" horiz-adv-x="1000" />

<glyph glyph-name="doc" unicode="&#xe81e;" d="M844 850h-750c-52 0-94-42-94-94v-812c0-52 42-94 94-94h750c51 0 94 42 94 94v812c0 52-43 94-94 94z m-31-875h-688v750h688v-750z m-563 438h438v-63h-438z m0-125h438v-63h-438z m0-125h438v-63h-438z m0 375h438v-63h-438z" horiz-adv-x="1000" />

<glyph glyph-name="coin" unicode="&#xe81f;" d="M500 788c241 0 438-197 438-438s-197-438-438-438-437 197-437 438 196 438 437 438m0 62c-276 0-500-224-500-500s224-500 500-500 500 224 500 500-224 500-500 500l0 0z m0-125c-207 0-375-168-375-375 0-207 168-375 375-375 207 0 375 168 375 375 0 207-168 375-375 375z m136-568c-24-28-60-44-106-49v-70h-59v70c-78 8-126 53-144 135l91 24c9-52 37-78 85-78 22 0 38 6 49 17s16 24 16 40c0 16-6 28-16 37-11 8-34 19-70 31-33 12-58 23-77 34-18 11-33 26-44 46-12 20-17 43-17 70 0 34 10 65 30 93 21 28 53 45 97 51v55h59v-55c66-8 109-45 128-112l-81-34c-16 46-41 69-74 69-17 0-30-5-40-15-10-11-15-23-15-38 0-15 4-26 14-34 10-8 31-18 63-29 35-13 63-25 83-37 20-11 35-27 47-47 12-20 18-44 18-71 0-41-12-75-37-103z" horiz-adv-x="1000" />

<glyph glyph-name="cols" unicode="&#xe820;" d="M0-73c0-34 28-62 61-62h164c34 0 61 28 61 62v846c0 34-27 62-61 62h-164c-33 0-61-28-61-62v-846z m418 908c-34 0-61-28-61-62v-846c0-34 27-62 61-62h164c34 0 61 28 61 62v846c0 34-27 62-61 62h-164z m357-970h164c34 0 61 28 61 62v846c0 34-27 62-61 62h-164c-34 0-61-28-61-62v-846c0-34 27-62 61-62z" horiz-adv-x="1000" />

<glyph glyph-name="half-star" unicode="&#xe821;" d="M895 439l-284 24-111 262-111-262-283-24 215-186-65-278 244 147 244-147-65 278 216 186z m-363-263l-32 19 0 370 53-126 15-35 38-3 136-12-104-89-28-25 8-37 31-133-117 71z" horiz-adv-x="1000" />

<glyph glyph-name="edit" unicode="&#xe822;" d="M57 667h416c-18-17-36-35-53-53l-61-61h-245v-588h588v244c38 39 76 77 115 115v-416c0-32-26-57-58-57h-702c-31 0-57 25-57 57v702c0 32 26 57 57 57z m931 35c7-14 8-29 12-44-1-12-5-21-13-29-169-169-338-337-507-506-6-7-13-11-22-12-73-16-145-31-218-46-17-4-30 9-27 26 16 73 31 147 47 220 2 7 6 14 11 20 49 49 97 97 146 146 120 120 240 240 360 360 9 9 18 14 30 12 14-2 28-3 40-8 66-27 113-74 141-139z m-555-546c-3 11-5 23-10 33-21 38-50 67-89 87-11 5-23 8-36 7-7-31-13-60-19-91v0c32-5 57-30 63-62 29 6 57 12 85 18 6 1 8 3 6 8z" horiz-adv-x="1000" />

<glyph glyph-name="cut" unicode="&#xe823;" d="M602 309c49 64 157 217 176 264 14 34 20 64 20 90 0 35-12 58-36 80-10 9-26 13-39 13l-223-300-20-26-5-8-1 0-28-38c0-1 0-1 0-1-1-2-15-21-30-44-6-9-12-19-18-28-7-11-13-21-17-30-7-14-14-28-21-42-7-14-14-28-20-40-20 14-43 22-67 22-34 0-66-15-90-43-22-25-35-60-35-96 0-36 13-70 35-96 24-27 56-42 90-42 28 0 55 10 76 29 21 18 36 42 43 69 2 6 23 68 51 112 18 28 43 46 58 54l26 19c0 0 25 17 75 82z m-329-281c-26 0-47 24-47 54s21 55 47 55 47-25 47-55c0-30-21-54-47-54z m227 259c-17 0-31 14-31 31s14 32 31 32 31-14 31-32-14-31-31-31z m-126 54c1-1 3-3 5-5 3 6 7 11 11 17l90 128-205 275c-17 0-28-1-36-7-23-18-37-50-38-85 0-27 7-56 21-91 17-41 83-137 152-232z m353-120c-24 0-47-8-67-22-7 12-13 26-21 40-6 14-13 28-20 41l-21-27-71-65c10-9 21-20 29-34 29-44 49-106 51-112 8-27 22-51 43-69 22-19 48-29 76-29 69 0 125 62 125 138s-55 139-124 139z m0-193c-26 0-47 24-47 54s21 55 47 55 47-25 47-55c0-30-21-54-47-54z" horiz-adv-x="1000" />

<glyph glyph-name="heart" unicode="&#xe824;" d="M500-25l-59 53c-209 192-347 317-347 472 0 127 97 225 223 225 71 0 138-33 183-86 45 53 112 86 183 86 126 0 223-98 223-225 0-155-138-280-347-472l-59-53z" horiz-adv-x="1000" />

<glyph glyph-name="facebook" unicode="&#xe825;" d="M750 850l-130 0c-145 0-239-97-239-246v-114h-131c-11 0-20-9-20-20v-164c0-12 9-21 20-21h131v-415c0-11 9-20 20-20h170c11 0 20 9 20 20v415h153c11 0 20 9 20 21l0 164c0 5-2 11-6 14-3 4-9 6-14 6h-153v97c0 46 11 69 72 69l87 0c11 0 20 10 20 21v152c0 12-9 21-20 21z" horiz-adv-x="1000" />

<glyph glyph-name="heart-half" unicode="&#xe826;" d="M683 725c-71 0-138-33-183-86-45 53-112 86-183 86-126 0-223-98-223-225 0-155 138-280 347-472l59-53 59 53c209 192 347 317 347 472 0 127-97 225-223 225z m-183-668v485l48 57c33 40 84 63 135 63 44 0 85-16 115-46 29-30 46-71 46-116 0-57-25-112-79-180-56-70-167-172-265-263z" horiz-adv-x="1000" />

<glyph glyph-name="gear" unicode="&#xe827;" d="M949 461h-94c-15 0-27 8-33 22s-3 29 8 39l66 67c9 9 15 22 15 36 0 14-6 27-15 36l-85 85c-19 19-53 19-72 0l-67-66c-8-9-18-11-25-11-9 0-18 4-25 10-5 5-11 13-11 26v94c0 28-23 51-51 51h-120c-28 0-51-23-51-51v-94c0-23-19-36-36-36-7 0-17 2-25 11l-67 66c-19 19-53 19-72 0l-85-85c-9-9-15-22-15-36 0-14 6-27 15-36l66-67c11-10 14-25 8-39s-18-22-33-22h-93c-29 0-52-23-52-51v-120c0-28 23-51 52-51h93c15 0 28-8 33-22s3-29-8-39l-66-67c-9-9-15-22-15-36 0-14 6-27 15-36l85-85c19-19 53-19 72 0l67 66c8 9 18 11 25 11 17 0 36-13 36-36v-94c0-28 23-51 51-51h120c28 0 51 23 51 51v94c0 23 19 36 36 36 7 0 17-2 25-11l67-66c19-19 53-19 72 0l85 85c9 9 15 22 15 36 0 14-6 27-15 36l-66 67c-11 10-14 25-8 39s18 22 33 22h94c28 0 51 23 51 51v120c0 28-23 51-51 51z m-319-111c0-71-58-130-130-130s-130 59-130 130 59 130 130 130 130-58 130-130z" horiz-adv-x="1000" />

<glyph glyph-name="home" unicode="&#xe828;" d="M406-25v250h188v-250h190v375h122l-406 375-406-375h122v-375z" horiz-adv-x="1000" />

<glyph glyph-name="grid" unicode="&#xe829;" d="M771 184c-58 0-105-47-105-105s47-104 105-104 104 47 104 104-47 105-104 105z m-271 0c-58 0-104-47-104-105s46-104 104-104 104 47 104 104-46 105-104 105z m-271 0c-57 0-104-47-104-105s47-104 104-104 105 47 105 104-47 105-105 105z m542 270c-58 0-105-46-105-104s47-104 105-104 104 46 104 104-47 104-104 104z m-271 0c-58 0-104-46-104-104s46-104 104-104 104 46 104 104-46 104-104 104z m-271 0c-57 0-104-46-104-104s47-104 104-104 105 46 105 104-47 104-105 104z m542 271c-58 0-105-47-105-104s47-105 105-105 104 47 104 105-47 104-104 104z m-271 0c-58 0-104-47-104-104s46-105 104-105 104 47 104 105-46 104-104 104z m-271 0c-57 0-104-47-104-104s47-105 104-105 105 47 105 105-47 104-105 104z" horiz-adv-x="1000" />

<glyph glyph-name="fingerprint" unicode="&#xe82a;" d="M153 448c-5 0-10 2-14 4-13 8-18 24-10 38 35 58 140 195 371 195 100 0 188-27 261-79 60-43 93-91 109-115 9-12 5-29-7-38-13-8-30-5-38 7-29 43-118 171-325 171-202 0-294-118-324-169-5-9-14-14-23-14z m463-536c-2 0-4 1-7 1-167 42-229 211-232 218l0 2c-2 5-35 121 16 189 24 31 60 47 107 47 44 0 76-14 98-43 18-23 25-52 32-80 15-58 26-89 86-92 27-1 45 15 55 28 27 37 31 97 11 150-26 68-119 197-282 197-70 0-134-23-185-65-43-36-76-86-93-137-30-95 10-245 10-246 4-15-5-30-19-33-15-4-30 4-34 19-2 7-44 166-9 277 37 119 154 239 330 239 81 0 158-28 222-80 50-41 90-97 111-152 27-70 20-149-18-200-25-35-61-53-101-51-105 6-124 79-137 133-14 55-23 82-77 82-29 0-50-9-63-26-18-23-19-59-17-86 2-27 8-49 9-54 4-11 60-149 194-183 15-4 24-19 20-33-3-12-14-21-27-21z m-215 13c-7 0-14 3-20 9-67 71-105 150-119 250v0c-8 66 4 159 61 223 43 48 102 72 177 72 89 0 158-42 201-121 32-57 38-113 38-116 2-15-9-28-24-30-15-1-29 10-31 25 0 0-5 49-32 97-33 60-85 90-152 90-59 0-104-18-136-53-45-50-54-128-48-180 13-88 46-158 105-220 11-11 10-29-1-39-5-5-12-7-19-7z m309 78c-59 0-108 17-148 49-80 66-89 172-90 176-1 15 10 28 26 30 15 1 28-10 29-25 0-2 8-89 70-139 37-29 85-41 146-34 15 2 28-9 30-24 2-15-9-29-24-30-13-2-26-3-39-3z m46 725c-23 15-104 60-256 60-160 0-241-50-259-62-1-1-2-2-3-3-1 0-1 0-1 0-6-5-9-12-9-20 0-15 12-28 28-28 6 0 11 2 16 6l-1-1c1 1 71 53 229 53s228-52 229-53l0 1 0 0c5-4 10-6 17-6 15 0 27 13 27 28 0 11-7 21-17 25z" horiz-adv-x="1000" />

<glyph glyph-name="happy" unicode="&#xe82b;" d="M500 850c-276 0-500-224-500-500s224-500 500-500 500 224 500 500-224 500-500 500z m167-322c43 0 77-34 77-77s-34-77-77-77c-42 0-77 35-77 77s35 77 77 77z m-334 0c42 0 77-34 77-77s-35-77-77-77c-42 0-77 35-77 77s35 77 77 77z m167-491c-131 0-249 82-294 205l62 23c36-97 129-162 232-162s196 65 232 162l62-23c-45-123-163-205-294-205z" horiz-adv-x="1000" />

<glyph glyph-name="hdots" unicode="&#xe82c;" d="M133 483c-73 0-133-59-133-133s60-133 133-133 134 60 134 133-60 133-134 133z m734 0c-74 0-134-59-134-133s60-133 134-133 133 60 133 133-60 133-133 133z m-367 0c-73 0-133-59-133-133s60-133 133-133 133 60 133 133-59 133-133 133z" horiz-adv-x="1000" />

<glyph glyph-name="key" unicode="&#xe82d;" d="M487 413c-28 78-108 140-196 140-112 0-197-91-197-203s89-203 201-203c88 0 164 62 192 141h201v-125h135v125h83v125h-419z m-191-130c-37 0-67 30-67 67s30 67 67 67 68-30 68-67-31-67-68-67z" horiz-adv-x="1000" />

<glyph glyph-name="google-plus" unicode="&#xe82e;" d="M324 733c68 0 129-35 164-83l84 84c-50 65-146 116-248 116-178 0-324-144-324-322s146-322 324-322c148 0 272 99 310 234 8 28 13 57 13 88v29h-293v-117h155c-32-69-103-117-185-117-113 0-207 92-207 205s94 205 207 205z m0 0m586-59h-117v-88h-88v-117h88v-88h117v88h90v117h-90z m0 0" horiz-adv-x="1000" />

<glyph glyph-name="list" unicode="&#xe82f;" d="M995 690c-6 9-15 16-26 18l-566 137c-19 3-37-7-44-25l-216-548 72-27 205 522 492-126c-31-95-104-294-174-479-61-162-96-217-163-228 0 0 0 0 0 0-137-19-134 155-134 155l-437 176c-31-196 120-244 120-244l320-145c0 0 50-24 104-21 146 3 198 109 262 280 93 246 187 521 188 524 4 10 2 22-3 31z m-259-221c4-1 7-2 11-2 16 0 32 12 37 29 5 20-7 41-27 47l-167 51c-20 6-41-6-47-27-5-20 7-41 27-47l166-51z m-259-56c-7-20 4-41 24-48l165-59c4-1 8-2 12-2 16 0 32 10 37 26 7 20-4 42-24 49l-166 59c-20 6-42-4-48-25z m-15-135c-20 6-42-5-48-25-7-20 4-42 24-48l166-59c4-1 8-2 12-2 16 0 31 10 36 26 7 20-4 42-24 49l-166 59z m-6 361c24 0 43-19 43-42 0-22-19-41-43-41-23 0-43 19-43 41 0 23 20 42 43 42z m-60-154c23 0 42-19 42-41 0-23-19-42-42-42-24 0-43 19-43 42 0 22 19 41 43 41z m-64-159c23 0 42-18 42-41 0-23-19-41-42-41-24 0-43 18-43 41 0 23 19 41 43 41z" horiz-adv-x="1000" />

<glyph glyph-name="locked" unicode="&#xe830;" d="M825 482h-17v61c0 169-138 307-308 307-169 0-307-138-307-307v-61h-18c-11 0-21-10-21-22v-589c0-11 10-21 21-21h650c12 0 21 10 21 21v589c0 12-9 22-21 22z m-549 61c0 123 100 224 224 224s224-101 224-224v-61h-448v61z m278-408c0-13 0-90 0-90 0-30-24-54-54-54-30 0-54 24-54 54 0 0 0 77 0 90 0 29-56 27-56 96 0 60 49 110 110 110s110-50 110-110c0-69-56-67-56-96z" horiz-adv-x="1000" />

<glyph glyph-name="logout" unicode="&#xe831;" d="M408 3c-1 4-2 6-1 9 0 2-1 4-5 5-3 2-5 3-5 4 0 1-2 1-7 2-5 0-7 1-7 1h-9-7-183c-28 0-52 10-72 30-20 19-30 44-30 72v449c0 28 10 52 30 72 20 20 44 30 72 30h204c5 0 10 1 13 4 3 2 5 7 6 12 1 6 2 11 2 15 0 5 0 10 0 17-1 7-1 11-1 13 0 5-2 10-6 14-4 4-9 6-14 6h-204c-51 0-94-18-130-54-36-36-54-79-54-129v-449c0-51 18-94 54-130 36-36 79-54 130-54h204c5 0 10 1 13 4 3 3 5 7 6 12 1 6 2 11 2 15 0 5 0 10 0 17-1 7-1 11-1 13z m580 376l-347 347c-8 8-18 12-29 12-11 0-20-4-28-12-8-8-13-18-13-29v-184h-285c-11 0-21-4-29-12-8-8-12-17-12-29v-244c0-11 4-21 12-29 8-8 18-12 29-12h285v-184c0-11 5-21 13-29 8-8 17-12 28-12 11 0 21 4 29 12l347 347c8 8 12 18 12 29 0 11-4 21-12 29z" horiz-adv-x="1000" />

<glyph glyph-name="mail" unicode="&#xe832;" d="M900 562l-210-214c-2-1-2-4 0-5l147-157c10-10 10-26 0-36-5-5-12-7-18-7s-13 2-18 7l-147 156c-1 2-4 2-6 0l-35-36c-30-30-70-47-112-47-44 0-85 18-115 48l-34 35c-2 2-4 2-6 0l-146-156c-5-5-12-7-18-7s-13 2-18 7c-10 10-10 26 0 36l147 157c1 1 1 4 0 5l-211 214c-2 3-6 1-6-2v-429c0-34 28-62 62-62h688c34 0 62 28 62 62v429c0 3-4 5-6 2z m-400-288c29 0 56 11 76 32l307 312c-11 8-24 13-39 13h-688c-15 0-28-5-39-13l307-312c20-21 47-32 76-32z" horiz-adv-x="1000" />

<glyph glyph-name="man" unicode="&#xe833;" d="M499 642h0c-49 0-89 39-89 88 0 49 40 89 89 89s89-40 89-89c0-23-9-46-26-62-17-17-39-26-63-26z m-67-761c-28 0-53 21-53 60l2 542h-19v-205c0-18-6-30-13-36-8-8-18-12-29-12-13 0-22 4-30 12-7 6-13 17-13 36v237c0 27 9 55 27 75 21 23 46 35 77 35h238c30 0 56-12 77-35 18-21 27-48 27-75v-237c0-14-4-27-13-36-9-8-19-12-31-12s-21 4-30 12c-9 9-13 22-13 36v205h-17v-542c0-39-27-60-55-60-26 0-51 18-53 58v276h-24v-275c-1-38-27-59-55-59z" horiz-adv-x="1000" />

<glyph glyph-name="image" unicode="&#xe834;" d="M220 240h372c9 0 14 10 9 17l-186 300c-4 6-14 6-18 0l-186-300c-5-7 0-17 9-17z m379 113l68-108c2-3 6-5 9-5h104c9 0 14 10 9 17l-120 171c-5 7-14 7-18 0l-52-62c-2-4-2-9 0-13z m87 169c25 3 46 23 49 49 3 35-26 63-60 60-26-3-47-23-49-49-3-34 25-63 60-60z m158 234h-688c-34 0-62-28-62-62v-688c0-34 28-62 62-62h688c34 0 62 28 62 62v688c0 34-28 62-62 62z m-5-547c0-8-8-15-16-15h-646c-8 0-15 7-15 15v464c0 8 7 16 15 16h646c9 0 16-8 16-16v-464z" horiz-adv-x="1000" />

<glyph glyph-name="minus-coin" unicode="&#xe835;" d="M500 756c-224 0-406-182-406-406s182-406 406-406 406 182 406 406-182 406-406 406z m209-447h-418v82h418v-82z" horiz-adv-x="1000" />

<glyph glyph-name="hourglass" unicode="&#xe836;" d="M812 2h-10c-13 0-24 2-25 15v0c-29 265-196 271-196 333s168 68 196 333v0c1 13 12 15 25 15h10c14 0 27 11 28 26 1 15-12 28-27 28h-625c-14 0-27-11-28-26-1-15 12-28 28-28h10c13 0 24-2 25-15v0c29-265 196-270 196-333s-168-68-196-333v0c-1-13-12-15-25-15h-10c-14 0-27-11-28-26-1-15 12-28 28-28h625c15 0 28 12 27 28-1 15-14 26-28 26z m-493 67c56 156 155 137 155 199v108c0 38-71 64-116 126-8 10 0 24 12 24h260c13 0 20-13 13-24-44-61-117-88-117-126v-108c0-61 95-45 155-199 6-14 2-31-13-31h-336c-15 0-18 17-13 31z" horiz-adv-x="1000" />

<glyph glyph-name="moon" unicode="&#xe837;" d="M784 158c-6 0-11 0-17 0-94 0-182 37-248 104-66 67-102 157-102 252 0 54 12 106 34 153 6 13 18 33 27 46 3 6-1 13-8 12-12-2-30-6-54-13-152-48-260-191-260-360 0-208 167-377 372-377 113 0 214 52 283 133 11 14 22 27 32 43 3 5-2 13-8 12-17-4-34-4-51-5z" horiz-adv-x="1000" />

<glyph glyph-name="help" unicode="&#xe838;" d="M500 756c-224 0-406-182-406-406s182-406 406-406 406 182 406 406-182 406-406 406z m107-71c53-17 101-46 142-86 40-41 69-89 86-142l-173-12c-16 27-39 50-66 66l11 174z m-356-86c41 40 89 69 142 86l12-174c-28-16-50-39-67-66l-173 12c17 53 46 101 86 142z m142-584c-53 17-101 46-142 86-40 41-69 89-86 142l174 12c16-28 39-50 66-66l-12-174z m107 202c-73 0-133 60-133 133s60 133 133 133 133-60 133-133-60-133-133-133z m249-116c-41-40-89-69-142-86l-12 174c28 16 51 39 67 66l173-11c-17-54-46-102-86-143z" horiz-adv-x="1000" />

<glyph glyph-name="heart-empty" unicode="&#xe839;" d="M683 725c-71 0-138-33-183-86-45 53-112 86-183 86-126 0-223-98-223-225 0-155 138-280 347-472l59-53 59 53c209 192 347 317 347 472 0 127-97 225-223 225z m-158-643l-8-8-17-15-17 15-8 8c-98 90-184 168-240 238-54 68-79 123-79 180 0 45 17 86 47 116 29 30 70 47 114 47 51 0 102-24 135-64l48-57 48 57c33 40 84 64 135 64 44 0 85-17 115-47 29-30 46-71 46-116 0-56-25-112-79-180-56-70-141-148-240-238z" horiz-adv-x="1000" />

<glyph glyph-name="person" unicode="&#xe83a;" d="M500 350c103 0 188 84 188 188s-85 187-188 187-187-84-187-187 84-188 187-188z m0-94c-124 0-375-63-375-187v-94h750v94c0 124-251 187-375 187z" horiz-adv-x="1000" />

<glyph glyph-name="phone" unicode="&#xe83b;" d="M853 138c-28 28-97 71-131 88-40 19-54 18-82-2-23-17-38-32-65-26-27 5-80 45-131 96-51 51-91 104-96 131-6 27 9 42 26 65 20 28 21 42 2 82-17 34-60 103-88 131-29 29-36 23-51 17 0 0-24-9-47-25-29-19-45-35-56-59-11-24-24-69 41-185 53-95 105-166 182-243l1 0 0-1c77-77 148-129 243-182 116-65 161-52 185-41 24 11 40 27 59 56 16 23 25 47 25 47 6 15 12 22-17 51z" horiz-adv-x="1000" />

<glyph glyph-name="pin" unicode="&#xe83c;" d="M500 756c-155 0-281-117-281-261 0-203 281-551 281-551s281 348 281 551c0 144-126 261-281 261z m0-373c-51 0-92 41-92 92s41 92 92 92 92-41 92-92-41-92-92-92z" horiz-adv-x="1000" />

<glyph glyph-name="landphone" unicode="&#xe83d;" d="M506 611c168-1 274 9 288-178h205c0 290-252 329-499 329-247 0-499-39-499-329h204c16 191 133 180 301 178z m-403-271c50 0 92-3 101 47 1 6 2 14 2 23h-2-204c0-74 46-70 103-70z m692 70h-2c0-9 1-17 2-23 10-46 52-43 102-43 57 0 103-4 103 66h-205z m-100 50v29c0 13-15 13-34 13h-30c-18 0-33 0-33-13v-25-20h-214v20 25c0 13-15 13-34 13h-30c-19 0-34 0-34-13v-29-26c-48-51-208-266-214-292l0-175c0-16 13-29 30-29h778c16 0 29 13 29 29v176c-6 25-165 240-214 291v26z m-322-342c-16 0-28 13-28 29s12 28 28 28 28-13 28-28-12-29-28-29z m0 98c-16 0-28 12-28 28s12 28 28 28 28-12 28-28-12-28-28-28z m0 97c-16 0-28 12-28 28 0 16 12 29 28 29s28-13 28-29c0-16-12-28-28-28z m117-195c-16 0-29 13-29 29s13 28 29 28c15 0 28-13 28-28s-13-29-28-29z m0 98c-16 0-29 12-29 28s13 28 29 28c15 0 28-12 28-28s-13-28-28-28z m0 97c-16 0-29 12-29 28 0 16 13 29 29 29 15 0 28-13 28-29 0-16-13-28-28-28z m116-195c-15 0-28 13-28 29s13 28 28 28 29-13 29-28-13-29-29-29z m0 98c-15 0-28 12-28 28s13 28 28 28 29-12 29-28-13-28-29-28z m0 97c-15 0-28 12-28 28 0 16 13 29 28 29s29-13 29-29c0-16-13-28-29-28z" horiz-adv-x="1000" />

<glyph glyph-name="power" unicode="&#xe83e;" d="M545 756h-90v-451h90v451z m218-98l-64-64c71-57 117-145 117-244 0-175-141-316-316-316s-316 141-316 316c0 99 46 187 116 245l-63 63c-88-74-143-184-143-308 0-224 182-406 406-406s406 182 406 406c0 124-55 234-143 308z" horiz-adv-x="1000" />

<glyph glyph-name="printer" unicode="&#xe83f;" d="M781 538h-562c-69 0-125-57-125-125v-271h156v-167h500v167h156v271c0 68-56 125-125 125z m-93-500h-375v250h375v-250z m62 687h-500v-156h500v156z" horiz-adv-x="1000" />

<glyph glyph-name="infinite" unicode="&#xe840;" d="M849 483c-37 35-85 55-138 55-52 0-100-20-137-55l-34-31 64-63 33 30 1 1c19 18 45 29 73 29 28 0 54-10 74-29 19-19 30-44 30-70 0-27-11-51-30-70-20-18-46-29-74-29s-54 10-73 29l-212 203c-37 35-86 55-137 55-52 0-101-20-138-55-37-35-57-83-57-133 0-50 20-97 57-133 37-35 86-54 138-54 52 0 101 19 137 54l74 71 74-71c37-35 85-54 137-54 52 0 101 19 138 54 37 35 57 82 57 133 0 50-20 98-57 133z m-487-203c-19-18-46-29-73-29-28 0-54 10-74 29-19 19-30 44-30 70 0 26 11 51 30 70 20 18 46 29 74 29 27 0 54-10 73-29l73-70-73-70z" horiz-adv-x="1000" />

<glyph glyph-name="refresh" unicode="&#xe841;" d="M500 668v120l-156-160 156-159v120c129 0 234-108 234-239 0-40-9-78-27-111l57-58c31 50 49 107 49 169 0 175-141 318-313 318z m0-557c-129 0-234 108-234 239 0 40 9 78 27 111l-57 58c-31-48-48-107-48-169 0-175 140-318 312-318v-120l156 160-156 159v-120z" horiz-adv-x="1000" />

<glyph glyph-name="info" unicode="&#xe842;" d="M409 623h182c12 0 23 4 32 13 9 9 13 20 13 32v137c0 12-4 23-13 32-9 9-20 13-32 13h-182c-12 0-23-4-32-13-9-9-13-20-13-32v-137c0-12 4-23 13-32 9-9 20-13 32-13z m305-605c-9 9-20 14-32 14h-46v409c0 12-4 23-13 32-9 9-20 13-32 13h-273c-12 0-23-4-32-13-9-9-13-20-13-32v-91c0-12 4-23 13-32 9-9 20-13 32-13h46v-273h-46c-12 0-23-5-32-14-9-9-13-19-13-32v-91c0-12 4-23 13-32 9-9 20-13 32-13h364c12 0 23 4 32 13 9 9 13 20 13 32v91c0 13-4 23-13 32z" horiz-adv-x="1000" />

<glyph glyph-name="order" unicode="&#xe843;" d="M182 441h636c13 0 23 4 32 13 9 9 14 20 14 32 0 13-5 23-14 32l-318 319c-9 9-20 13-32 13s-23-4-32-13l-318-319c-9-9-14-19-14-32 0-12 5-23 14-32 9-9 20-13 32-13z m636-182h-636c-12 0-23-4-32-13-9-9-14-20-14-32 0-13 5-23 14-32l318-319c9-9 20-13 32-13s23 4 32 13l318 319c9 9 14 19 14 32 0 12-5 23-14 32-9 9-19 13-32 13z" horiz-adv-x="1000" />

<glyph glyph-name="money" unicode="&#xe844;" d="M753 334c-30 23-74 42-134 57l-47 10v197c2-1 3-2 4-2s2-1 2-2c40-19 61-52 63-98h157c-3 82-33 144-92 187-38 29-82 48-134 57v110h-144v-106c-68-8-121-29-161-65-51-46-77-104-77-174 0-76 27-133 79-169 29-21 82-39 159-57v-211c-29 8-50 21-65 38-16 19-27 45-31 77h-154c0-80 29-143 87-189 42-32 96-53 163-63v-81h144v79c71 10 127 32 169 67 54 48 81 107 81 179 0 69-23 122-69 159z m-325 101c-23 7-39 13-49 19-26 13-39 34-39 63 0 31 13 55 39 71 14 8 30 15 49 20v-173z m169-363c-7-3-15-5-25-7v181c26-8 46-16 59-24 23-15 35-35 35-61 0-43-23-73-69-89z" horiz-adv-x="1000" />

<glyph glyph-name="plus" unicode="&#xe845;" d="M1000 445v-190c0-15-12-26-26-26h-353v-353c0-14-11-26-26-26h-190c-15 0-26 12-26 26v353h-353c-14 0-26 11-26 26v190c0 15 12 26 26 26h353v353c0 14 11 26 26 26h190c15 0 26-12 26-26v-353h353c14 0 26-11 26-26z" horiz-adv-x="1000" />

<glyph glyph-name="save" unicode="&#xe846;" d="M531 725h-31c-9 0-16-7-16-16v-140c0-9 15-16 24-16h23c9 0 16 7 16 16v140c0 9-7 16-16 16z m317-129l-102 101c-17 18-41 28-66 28h-55c-17 0-31-14-31-32v-156c0-17-14-31-32-31h-249c-18 0-32 14-32 31v156c0 18-14 32-31 32h-62c-35 0-63-28-63-62v-625c0-35 28-63 63-63h625c34 0 62 28 62 63v492c0 25-10 48-27 66z m-219-527c0-18-16-32-35-32h-313c-19 0-35 14-35 32v187c0 17 16 31 35 31h313c19 0 35-14 35-31v-187z" horiz-adv-x="1000" />

<glyph glyph-name="ribbon" unicode="&#xe847;" d="M498 277c142-1 258 115 257 257-1 137-116 252-253 254-142 1-258-115-257-258 1-136 117-252 253-253z m-7 399c86 5 158-66 152-153-4-72-62-129-134-134-86-6-158 66-152 153 4 71 62 129 134 134z m9-428c-84 0-159 35-212 92-4 3-10 3-13-2l-148-259c-6-11 2-24 14-24h157c5 0 11-3 14-8l76-127c6-11 23-10 28 2l84 185 61 134c3 6-2 13-8 11-18-3-35-4-53-4z m212 92c-29-31-63-55-103-71-2-1-3-2-4-4l-87-191c-1-2-1-4 0-6l66-146c5-12 22-13 29-2l76 127c3 5 8 8 14 8h156c12 0 20 13 14 24l-148 260c-3 4-9 5-13 1z" horiz-adv-x="1000" />

<glyph glyph-name="people" unicode="&#xe848;" d="M659 397c66 0 119 53 119 117 0 65-53 117-119 117s-119-52-119-117c0-64 54-117 119-117z m-318 0c66 0 119 53 119 117 0 65-53 117-119 117s-119-52-119-117c0-64 53-117 119-117z m0-86c-94 0-278-45-278-137v-105h562v105c0 92-191 137-284 137z m318-22c-12 0-20 0-34-1 46-34 63-55 63-114v-105h250v105c0 92-185 115-279 115z" horiz-adv-x="1000" />

<glyph glyph-name="star" unicode="&#xe849;" d="M500 122l244-147-65 278 216 186-284 24-111 262-111-262-283-24 215-186-65-278z" horiz-adv-x="1000" />

<glyph glyph-name="minus" unicode="&#xe84a;" d="M1000 445v-190c0-15-12-26-26-26h-948c-14 0-26 11-26 26v190c0 15 12 26 26 26h948c14 0 26-11 26-26z" horiz-adv-x="1000" />

<glyph glyph-name="question" unicode="&#xe84b;" d="M583 100h-188c-8 0-15-3-21-9-7-7-10-14-10-22v-188c0-8 3-15 10-22 6-6 13-9 21-9h188c8 0 16 3 22 9 6 7 9 14 9 22v188c0 8-3 15-9 22-6 6-14 9-22 9z m246 561c-21 40-49 73-83 100-34 27-72 49-114 65-42 16-84 24-126 24-158 0-279-69-362-208-4-7-6-14-4-22 1-7 5-14 12-19l128-98c7-4 13-6 19-6 10 0 18 4 25 12 37 47 65 77 83 90 23 15 51 23 84 23 32 0 60-8 84-25 25-17 37-36 37-58 0-24-7-44-20-59-13-15-35-30-65-44-41-18-78-46-112-85-34-38-51-79-51-122v-35c0-10 3-20 8-29 6-10 12-15 20-15h188c8 0 15 4 22 12 6 8 9 17 9 26 0 13 7 30 21 52 15 22 33 39 54 51 20 11 36 20 48 27 11 7 26 19 45 34 18 16 32 32 43 47 10 15 19 35 27 60 8 24 12 50 12 79 0 43-11 84-32 123z" horiz-adv-x="1000" />

<glyph glyph-name="swap" unicode="&#xe84c;" d="M256 399l-193-195 193-194v146h341v97h-341v146z m682 97l-194 194v-146h-341v-97h341v-146l194 195z" horiz-adv-x="1000" />

<glyph glyph-name="tag" unicode="&#xe84d;" d="M813 725h-310l-354-366c-15-16-24-36-24-57-1-22 8-44 24-61l242-241c16-16 41-25 56-25s45 8 62 25l366 350v313l-62 62z m-60-201c-43-11-81 20-81 60 0 35 28 63 62 63 41 0 72-38 60-81-5-20-21-36-41-42z" horiz-adv-x="1000" />

<glyph glyph-name="tags" unicode="&#xe84e;" d="M863 641v-275l-415-398c15-16 40-24 56-24s44 7 61 24l373 351v250l-75 72z m-113 115h-312l-351-366c-16-16-24-35-24-56-1-22 7-45 24-62l241-241c16-16 41-25 57-25s44 8 61 25l367 350v313l-63 62z m-60-200c-42-12-81 19-81 60 0 34 28 62 63 62 40 0 72-38 60-80-6-21-22-37-42-42z" horiz-adv-x="1000" />

<glyph glyph-name="rocket" unicode="&#xe84f;" d="M902 745c-1 4-3 6-6 7-107 26-352-67-485-200-26-26-47-51-65-76-41 4-82 1-117-15-98-43-127-156-135-205-2-11 7-21 19-20l158 17c1-15 2-27 2-36 1-8 5-15 11-21l61-62c6-5 14-9 22-10 8-1 20-2 35-2l-17-158c-1-12 9-21 20-20 49 8 162 37 206 136 15 35 18 76 14 116 25 18 51 39 77 65 134 133 226 373 200 484z m-319-312c-32 33-32 85 0 118 33 33 86 33 118 0 33-33 33-85 0-118-32-33-85-33-118 0z m-242-326c-8-8-23-13-39-16-35-6-66 25-60 61 2 16 7 30 15 38l0 0c5 5 1 12-5 12-19-3-38-11-53-26-35-35-38-166-38-166s130 4 166 39c14 15 23 33 25 52 1 7-7 10-11 6z" horiz-adv-x="1000" />

<glyph glyph-name="star-empty" unicode="&#xe850;" d="M895 439l-284 24-111 262-111-262-283-24 215-186-65-278 244 147 244-147-65 278 216 186z m-363-263l-32 19-32-19-117-71 31 133 8 37-28 25-104 89 137 12 37 3 15 35 53 126 53-126 15-35 38-3 136-12-104-89-28-25 8-37 31-133-117 71z" horiz-adv-x="1000" />

<glyph glyph-name="text" unicode="&#xe851;" d="M847 850h-384c-12 0-23-4-32-12l-310-284c-9-9-15-22-15-35v-622c0-26 21-47 47-47h694c26 0 47 21 47 47v906c0 26-21 47-47 47z m-420-143v-175h-190l190 175z m373-763h-600v494h274c26 0 47 21 47 47v271h279v-812l0 0z m-490 359h396v-94h-396v94z m0-167h396v-94h-396v94z" horiz-adv-x="1000" />

<glyph glyph-name="search" unicode="&#xe852;" d="M989-27l-207 207c-8 7-8 15-4 23 42 65 65 141 65 226 0 233-188 421-421 421s-422-188-422-421 188-422 422-422c84 0 161 23 226 65 7 4 19 4 23-4l207-207c15-15 38-15 53 0l54 54c19 19 19 42 4 58z m-563 187c-150 0-269 119-269 269s119 268 269 268 268-119 268-268-119-269-268-269z" horiz-adv-x="1000" />

<glyph glyph-name="shipping" unicode="&#xe853;" d="M266 321h352c16 0 29 13 29 29v354c0 16-13 29-29 29h-88v29c0 49-40 88-88 88s-88-39-88-88v-29h-88c-16 0-29-13-29-29v-354c0-16 13-29 29-29z m147 441c0 16 13 29 29 29 16 0 29-13 29-29v-29h-58z m0 0m456-397c-5 9-15 14-25 14-52 0-99-28-123-74l-90-172c-15-29-45-47-78-47h-199c-16 0-29 13-29 30s13 29 29 29h199c11 0 21 6 26 16 5 9 20 39 34 64 4 8 4 17-1 25-5 8-13 12-22 12h-305c-39 0-75-15-103-43l-173-173c-12-11-12-30 0-41l146-146c6-6 13-9 21-9s15 3 21 9l111 110h245c77 0 146 42 182 110l135 257c4 10 4 20-1 29z m0 0" horiz-adv-x="1000" />

<glyph glyph-name="store" unicode="&#xe854;" d="M375 243c-10 0-18-8-18-18v-375h250v375c0 10-8 18-18 18z m54-214h-36v35h36z m0 0m446-179c10 0 18 8 18 18v522c-10-2-21-4-32-4h-3c-52 0-100 28-125 74-25-46-73-74-125-74-53 0-101 28-126 74-25-46-73-74-125-74s-100 28-125 74c-31-58-97-86-161-70v-522c0-10 8-18 18-18h232v375c0 30 24 54 54 54h214c30 0 54-24 54-54v-375z m0 0m90 682c0 19-6 37-16 53-1 1-1 3-2 5l-49 171h-830l-49-171c-1-3-2-6-4-8-10-16-15-34-15-53 0-60 48-108 107-108s107 48 107 108c0 9 8 17 18 17s18-8 18-17c0-60 48-108 107-108s107 48 107 108c0 9 8 17 18 17s18-8 18-17c0-60 48-108 107-108s107 48 107 108c0 9 8 17 18 17h1 0c10 0 18-8 18-17 0-29 12-57 32-77 21-20 49-31 78-31 14 1 29 4 42 11 39 18 63 57 62 100z m0 0m-822 264h678v36c0 10-8 18-17 18h-643c-10 0-18-8-18-18z m0 0" horiz-adv-x="1000" />

<glyph glyph-name="sad" unicode="&#xe855;" d="M854 704c-95 94-220 146-354 146-134 0-259-52-354-146s-146-220-146-354c0-134 52-259 146-354 95-94 220-146 354-146 134 0 259 52 354 146 94 95 146 220 146 354 0 134-52 259-146 354z m-232-150c42 0 75-34 75-75 0-42-33-75-75-75-41 0-74 33-74 75 0 41 33 75 74 75z m-244 0c41 0 75-34 75-75 0-42-34-75-75-75-42 0-75 33-75 75 0 41 33 75 75 75z m334-408c-18-10-40-3-50 15-30 56-88 93-152 96-64 4-127-27-163-80-3-6-6-11-9-16-10-18-32-25-50-15-17 9-24 31-15 49 4 8 9 15 14 22 48 71 129 114 213 114 5 0 9 0 14-1 89-4 170-56 213-135 9-18 3-40-15-49z" horiz-adv-x="1000" />

<glyph glyph-name="rows" unicode="&#xe856;" d="M968 831h-936c-17 0-32-14-32-32v-144c0-18 15-32 32-32h936c18 0 32 14 32 32v144c0 18-14 32-32 32z m0-377h-936c-17 0-32-14-32-32v-144c0-18 15-32 32-32h936c18 0 32 14 32 32v144c0 18-14 32-32 32z m0-377h-936c-17 0-32-14-32-32v-144c0-18 15-32 32-32h936c18 0 32 14 32 32v144c0 18-14 32-32 32z" horiz-adv-x="1000" />

<glyph glyph-name="visitor" unicode="&#xe857;" d="M498 292c148 0 268 120 268 267s-120 267-268 267-267-120-267-267 120-267 267-267z m0 464c109 0 197-88 197-197s-88-197-197-197-197 89-197 197 89 197 197 197z m-463-882h930c19 0 35 15 35 35 0 185-150 336-336 336h-328c-185 0-336-150-336-336 0-20 16-35 35-35z m301 300h328c135 0 246-100 263-230h-854c17 129 128 230 263 230z" horiz-adv-x="1000" />

<glyph glyph-name="time" unicode="&#xe858;" d="M933 601c-45 77-105 137-182 182-77 45-160 67-251 67-91 0-174-22-251-67-77-45-137-105-182-182-45-77-67-160-67-251 0-91 22-174 67-251 45-77 105-137 182-182 77-45 160-67 251-67s174 22 251 67c77 45 137 105 182 182 45 77 67 160 67 251 0 91-22 174-67 251z m-126-429c-32-54-75-97-129-129-54-31-114-47-178-47-64 0-123 16-178 47-54 32-97 75-129 129-31 55-47 114-47 178 0 64 16 124 47 178 32 54 75 97 129 129 55 31 114 47 178 47 64 0 124-16 178-47 54-32 97-75 129-129 31-54 47-114 47-178 0-64-16-123-47-178z m-244 428h-42c-6 0-11-2-15-6-4-4-6-9-6-15v-229h-146c-6 0-11-2-15-6-4-4-6-9-6-15v-41c0-7 2-12 6-15 4-4 9-6 15-6h209c6 0 11 2 15 6 3 3 5 8 5 15v291c0 6-2 11-5 15-4 4-9 6-15 6z" horiz-adv-x="1000" />

<glyph glyph-name="unlocked" unicode="&#xe859;" d="M813 350h-480v208c0 46 17 86 49 118 33 33 72 49 118 49 46 0 85-16 118-49 32-32 49-72 49-118 0-11 4-21 12-29 8-8 18-12 29-12h42c11 0 21 4 29 12 9 8 13 18 13 29 0 81-29 149-86 206-57 58-126 86-206 86-80 0-149-28-206-86-57-57-86-125-86-206v-208h-20c-18 0-33-6-45-18-12-12-18-27-18-44v-376c0-17 6-32 18-44 12-12 27-18 45-18h625c17 0 32 6 44 18 12 12 18 27 18 44v376c0 17-6 32-18 44-12 12-27 18-44 18z m-264-260v-122c0-25-20-45-45-45h-8c-25 0-45 20-45 45v122c-26 16-44 45-44 78 0 52 42 93 93 93s93-41 93-93c0-33-18-62-44-78z" horiz-adv-x="1000" />

<glyph glyph-name="thumbs-up-o" unicode="&#xe85a;" d="M215 206q0 14-11 25-10 11-25 11-14 0-25-11-10-11-10-25 0-15 10-25 11-11 25-11 15 0 25 11 11 10 11 25z m643 321q0 29-22 50-22 22-50 22h-196q0 32 27 89 27 56 27 89 0 55-18 81-18 27-72 27-14-15-21-48-7-33-17-70-10-37-33-61-12-13-43-51-2-3-13-17-11-13-18-22-7-9-19-24-12-15-22-25-10-9-22-19-11-11-22-16-11-5-20-5h-18v-357h18q7 0 18-1 10-2 18-4 8-2 21-6 14-4 20-7 6-2 20-7 13-4 16-5 118-41 191-41h67q107 0 107 93 0 15-2 31 16 9 26 30 10 20 10 41 0 20-10 38 29 28 29 67 0 13-5 30-6 17-14 27 18 1 30 26 12 26 12 45z m71 1q0-50-27-91 5-18 5-38 0-43-21-81 1-12 1-24 0-56-33-99 0-78-48-123-48-45-126-45h-20-52q-54 0-106 13-52 13-121 37-64 22-77 22h-160q-30 0-51 21-21 21-21 50v357q0 30 21 51 21 21 51 21h152q21 13 77 86 32 42 60 72 13 14 19 47 7 34 17 71 11 37 35 60 22 21 50 21 47 0 84-18 38-18 57-57 20-38 20-104 0-51-27-107h98q58 0 101-42 42-43 42-100z" horiz-adv-x="1000" />

<glyph glyph-name="thumbs-up" unicode="&#xe85b;" d="M169 77c0 11-4 20-12 27-8 8-17 12-27 12-11 0-21-4-28-12-8-7-11-16-11-27 0-11 3-20 11-28 7-7 17-11 28-11 10 0 19 4 27 11s12 17 12 28z m97 312v-390c0-11-4-20-12-27s-16-12-27-12h-175c-11 0-20 4-28 12-8 7-11 16-11 27v390c0 11 3 20 11 27 8 8 17 12 28 12h175c11 0 20-4 27-12 8-7 12-16 12-27z m722 0c0-35-12-65-34-91 6-18 9-33 9-46 1-31-7-59-26-84 7-22 7-46 0-71-6-23-17-42-33-57 4-46-6-82-30-111-26-30-66-46-120-47h-78c-27 0-57 3-88 9-32 7-57 13-74 18-18 6-42 14-74 24-50 18-82 27-96 27-11 0-20 4-27 12-8 7-12 16-12 27v391c0 10 4 19 11 26 7 8 16 12 26 13 10 0 25 12 47 36 21 23 41 47 61 73 28 36 48 60 62 73 7 8 13 18 19 30s8 22 10 29c2 8 5 20 8 37 3 16 6 28 8 37 2 9 6 20 12 32 6 12 13 22 21 30 7 8 16 12 27 12 19 0 35-2 50-6 15-5 27-10 37-16 9-6 18-15 24-25 7-10 12-19 15-27 3-8 5-19 7-31 2-12 3-21 3-27 0-6 1-14 1-24 0-15-2-31-6-46-4-16-8-28-12-37-4-9-9-20-17-34-1-2-3-6-6-11-3-5-5-9-6-13-2-4-4-9-5-15h169c31 0 59-12 82-35 23-23 35-50 35-82z" horiz-adv-x="1000" />

<glyph glyph-name="trash" unicode="&#xe85c;" d="M622 722v128h-244v-128h-307v-179h858v179h-307z m-59 0h-126v69h126v-69z m-433-237l62-635h616l62 635h-740z m201-497l-17 373h59l17-373h-59z m198 0h-58v373h58v-373z m140 0h-59l18 373h58l-17-373z" horiz-adv-x="1000" />

<glyph glyph-name="menu" unicode="&#xe85d;" d="M60 726h880c80-2 80 126 0 124h-880c-80 2-80-126 0-124z m880-314h-880c-80 2-80-126 0-124h880c80-2 80 126 0 124z m0-436h-880c-80 0-80-126 0-126h880c80 0 80 126 0 126z" horiz-adv-x="1000" />

<glyph glyph-name="arrow-l" unicode="&#xe85e;" d="M834 392h-507l234 234-61 58-334-334 334-334 58 59-231 233h507v84z" horiz-adv-x="1000" />

<glyph glyph-name="contact" unicode="&#xe85f;" d="M0 739v-778c0-61 50-111 111-111h778c61 0 111 50 111 111v778c0 61-50 111-111 111h-778c-61 0-111-50-111-111z m667-222c0-95-73-167-167-167-94 0-167 72-167 167s73 166 167 166c94 0 167-72 167-166z m-500-445c0 111 222 172 333 172s333-61 333-172v-55h-666v55z" horiz-adv-x="1000" />

<glyph glyph-name="upload" unicode="&#xe860;" d="M324 85h352v353h236l-412 412-412-412h236v-353h0z m-236-117h824v-118h-824v118z" horiz-adv-x="1000" />

<glyph glyph-name="open" unicode="&#xe861;" d="M992 334c-7 16-19 28-35 37-16 8-33 13-52 13h-100v83c0 33-12 60-35 83-23 23-51 35-83 35h-285v16c0 33-11 60-34 83-23 23-51 35-83 35h-168c-32 0-59-12-82-35-23-23-35-50-35-83v-502c0-33 12-60 35-83 23-23 50-35 82-35h570c24 0 48 6 74 18 25 12 45 28 60 46l155 190c16 21 24 42 24 63 0 13-3 25-8 36z m-925 267c0 14 5 26 15 36 10 10 21 15 35 15h168c14 0 26-5 36-15 9-10 14-22 14-36v-33c0-14 5-26 15-36s22-14 36-14h301c14 0 26-5 36-15 10-10 15-22 15-36v-83h-403c-23 0-48-6-73-19-25-12-45-27-61-45l-134-165v446z m857-323l-154-190c-9-11-22-20-38-28-16-8-31-12-45-12h-570c-18 0-27 6-27 19 0 5 3 12 9 21l154 190c9 11 22 20 38 27 15 8 30 12 44 12h570c19 0 28-7 28-19 0-6-3-13-9-20z" horiz-adv-x="1000" />
</font>
</defs>
</svg>
